<?xml version="1.0" standalone="no"?>
<!DOCTYPE svg PUBLIC "-//W3C//DTD SVG 1.1//EN" "http://www.w3.org/Graphics/SVG/1.1/DTD/svg11.dtd">
<svg xmlns="http://www.w3.org/2000/svg">
<metadata>Generated by Fontastic.me</metadata>
<defs>
<font id="hultens" horiz-adv-x="512">
<font-face font-family="hultens" units-per-em="512" ascent="480" descent="-32"/>
<missing-glyph horiz-adv-x="512" />

<glyph glyph-name="grill-icon" unicode="&#97;" d="M512 389c0 1 0 3 0 5 0 5-1 11-2 16 0 1-1 2-1 3 0 1 0 1 0 1 0 2-1 4-3 5-16 37-69 67-140 82-1 0-2 0-3 1-32 6-68 10-107 10-5 0-11 0-16 0-1 0-2 0-3 0-97-4-177-30-215-69 0 0-1-1-1-1-1-1-1-1-1-2-4-4-7-8-10-13-3-1-5-4-6-7-1-4-1-7-2-10-1-6-2-11-2-16 0-2 0-4 0-5 0-4 0-7 0-10 0-23 4-46 11-67l0-285c0-6 5-11 11-11 6 0 11 5 11 11l0 39 212 49 0-104c0-6 5-11 11-11 6 0 11 5 11 11l0 104 213-49 0-39c0-6 5-11 11-11 6 0 11 5 11 11l0 286c7 21 10 43 10 66 0 3 0 6 0 10z m-32-71c-30-85-119-147-224-147-104 0-193 61-223 144 0 1 0 1 0 1 0 2-1 5-2 6-2 7-4 13-5 19 41-39 128-66 230-66 71 0 135 13 181 34 1 0 2 1 2 1 19 9 35 20 48 31-2-7-4-14-6-21 0 0-1-1-1-2z m-374 149l200-167c-16-2-33-3-50-3-22 0-43 2-63 4l-148 134c14 12 35 23 61 32z m128 23l180-167c-23-9-50-16-80-20l-204 172c31 8 67 13 104 15z m123-10l124-113c-9-13-25-24-45-34l-170 157c33-1 63-4 91-10z m-204-173c-74 15-126 46-131 82 0 6 1 11 2 17 1 4 3 8 6 12z m335 100c1-6 2-12 2-18 0 0 0 0 0 0l-87 79c45-15 77-37 85-61z m-455-141c42-67 121-113 212-116l0-12-212-50z m447-177l-213 49 0 12c92 3 171 50 213 117z"/>
<glyph glyph-name="news-icon" unicode="&#98;" d="M461 351l0 108c0 24-20 44-45 44l-4 0c-11 0-20-9-43-32-39-40-111-115-182-115l-133 0c-30-1-54-26-54-56l0-61c0-30 24-53 54-54l4 0 34-140c6-21 25-36 48-37l47 0c22 2 37 21 36 42-1 5-2 11-5 15l-32 51c-11 17-11 35-12 54l0 15 12 0c71 0 143-75 181-115 23-25 31-32 43-32l5 0c25 0 44 20 44 44l0 108c32 15 53 46 53 81 0 35-20 66-51 80z m-267-301c0-2-1-4-2-6-1-5-5-6-6-6l-46 0c-9 1-16 7-19 15l-32 134 57 0c0-6 0-12 2-17-2-24 4-49 16-69z m-19 164l-121 0c-14 0-25 11-25 24 0 1 0 1 0 1l0 61c0 14 11 25 24 25 0 0 1 0 1 0l121 0z m255 131l0-264c0-8-6-14-14-14l-1 0c-9 7-17 15-25 23-38 40-109 114-186 123l0 112c77 9 148 83 186 123 8 9 16 18 25 26l1 0c8 0 14-6 14-14z m31-121l0 93c14-11 23-28 23-46 0-18-9-36-23-47z"/>
<glyph glyph-name="outdoor-icon" unicode="&#99;" d="M501 317l-68 0c3 11 6 21 7 28 3 20-3 40-17 56-14 17-35 27-57 27l-29 0c-22 0-43-10-57-27-14-16-20-36-17-56 1-7 4-17 7-28l-28 0c3 11 6 20 7 27 3 21-3 41-17 56-14 17-35 27-57 28l-29 0c-22-1-43-11-57-28-14-15-20-35-17-56 1-7 3-16 6-27l-67 0c-6 0-11-4-11-10 0-6 5-11 11-11l14 0 0-194c0 0 0 0 0 0 0-6 4-11 10-11 0 0 0 0 0 0 6 0 11 5 11 11l0 194 39 0c8-25 18-52 24-68l-12 0c0 0 0 0 0 0-6 0-11-5-11-11l0-123c0-6 5-10 11-10 6 0 11 4 11 10l0 113 14 0c1-1 2-1 3-1 0 0 1 0 2 1l66 0c2-1 4-1 6 0l14 0 0-113c0 0 0 0 0 0 0-6 5-10 11-10 5 0 10 5 10 10l0 123c0 0 0 0 0 0 0 6-5 11-11 11l-11 0c6 16 16 43 24 68l40 0c8-25 18-52 24-68l-12 0c0 0 0 0 0 0-6 0-10-5-10-11l0-123c0-6 4-10 10-10 6 0 11 4 11 10l0 113 15 0c1-1 2-1 3 0l68 0c1-1 2-1 2-1 1 0 2 0 3 1l14 0 0-113c0 0 0 0 0 0 0-6 5-10 11-10 0 0 0 0 0 0 6 0 10 4 10 10l0 123c0 0 0 0 0 0 0 6-4 11-10 11l-12 0c6 16 16 43 24 68l39 0 0-194c0 0 0 0 0 0 0-6 5-11 10-11 0 0 0 0 0 0 6 0 11 5 11 11l0 194 14 0c6 0 11 5 11 11 0 0 0 0 0 0 0 6-5 10-11 10z m-369-89c-6 14-18 47-28 77 0 0 0 1 0 2 0 3-1 6-3 8-4 13-7 24-8 32-2 15 2 29 11 40 11 12 26 19 42 20l29 0c16-1 31-8 41-20 10-11 14-25 12-40-4-27-30-96-39-119z m191 0c-8 22-35 92-39 120-2 14 2 28 12 39 10 12 25 19 41 20l29 0c16-1 31-8 41-20 10-11 14-25 12-39-1-8-5-21-9-34-1-2-3-4-3-7 0-1 1-1 1-1-10-30-23-64-28-78z"/>
<glyph glyph-name="material-icon" unicode="&#100;" d="M475 148c11 5 21 10 31 17 5 4 7 9 4 15l-36 73c11 4 22 9 33 17 5 4 7 10 4 16l-104 208c-2 3-5 6-8 7-3 1-7 0-10-2-57-41-126-30-193-20-69 11-141 22-192-30-4-4-5-9-3-14l34-67c-12-6-23-14-32-24-4-3-5-9-2-13l34-69c-11-6-22-12-30-21-4-4-5-10-2-14l103-208c2-4 5-6 9-7 1 0 1 0 2 0 3 0 7 1 9 4 41 43 101 34 170 23 68-11 146-23 211 23 5 4 7 10 4 16z m-283 306c64-10 136-21 199 16l93-185c-55-33-121-23-185-13-64 10-129 20-178-18l-93 184c41 35 99 27 164 16z m-146-109l60-118c2-4 5-6 9-7 1 0 1 0 2 0 3 0 7 1 9 4 41 42 101 33 171 23 49-8 103-16 155-3l31-66c-55-33-121-22-184-12-65 9-130 19-179-19l-92 186c6 5 12 8 18 12z m253-282c-64 10-129 20-178-19l-92 185c5 4 11 8 16 12l59-118c2-4 5-6 9-7 1 0 1 0 2 0 3 0 7 1 9 4 41 43 101 34 171 23 50-8 105-16 157-2l32-65c-56-34-121-23-185-13z"/>
<glyph glyph-name="rea-icon" unicode="&#101;" d="M191 294l22 0c9 0 15-1 20-4 4-4 7-9 7-17 0-6-1-10-2-13-1-3-4-6-8-8l11-39-18 0-9 36-5 0 0-36-18 0 0 81z m22-34c4 0 6 2 7 4 2 1 2 4 2 8 0 4 0 6-2 8-1 2-3 3-6 3l-6 0 0-23z m37 34l36 0 0-12-19 0 0-20 15 0 0-12-15 0 0-24 19 0 0-12-36 0 0 80z m55 0l21 0 14-80-16 0-2 17-12 0-3-17-17 0z m15-53l-4 32-5-32z m188-140l4 10-9-5-10 5 4-10-4-10 10 5 9-5z m-76 67l-7-12-13-1 10-9 3-13 8 12 13 1-12 9z m-138 259l12 3c4-1 8-3 12-4l0 13c0 0 6 9 8 11l-12 3-7 10-7-11c0 0-11-3-12-3 2-4 5-7 8-10-1-4-1-9-2-12z m-210-144l-12 3-6 10-7-11c0 0-11-3-12-3 2-4 5-7 8-11 0-4 0-8-1-12l12 5c3-1 8-3 12-5l-1 12c-1 2 5 10 7 12z m393-129l-4 7-5-7c0 0-8-3-9-3 2-2 4-5 6-6l0-9 8 3c2-1 5-2 8-3l-1 9c2 2 4 4 6 6z m-380-11c2-1 5-3 8-3l0 8c2 3 3 5 5 7l-8 3-5 6-5-6c0 0-8-3-9-3 2-2 4-5 6-7l0-8z m-47 0l-2-5-5-3 5-2 2-5 3 5 5 2-5 3z m-10 3l-3 7-2-7-6-1 6-2 2-6 3 6 5 2z m52 228l3 8 8 3-8 3-3 8-3-8-8-3 8-3z m47-14l8 3c3-1 5-2 8-3l0 9c2 2 4 4 6 6l-9 3-5 7-5-7c0 0-8-3-8-3 2-2 4-5 5-6z m149 7l4 8 8 3-8 3-4 9-2-9-9-3 9-3z m151-119l2-17 13-13-2 18z m32 28l4 13 13 6-14 4-5 13-4-14-13-5 13-4z m-52 56l3 6 5 3-6 2-3 6-1-6-7-3 7-2z m-24 21l2 7 7 2-8 2-2 6-2-6-6-3 6-1z m100-163l4-3 3 3 4 0 0 5 3 3-3 4 0 5-4 0-3 3-4-3-4 0 0-5-3-4 3-3 0-5z m-349 115l-4 13-6-13-13-4 13-6 6-13 4 13 14 6z m-44-219l-7-11c0 0-11-3-12-3 3-3 5-7 8-10 0-5 0-9-1-13l12 5c4-1 8-3 12-5l0 12c0 0 7 9 8 11l-12 3z m-72 112c0 0 7 9 8 10l-12 3-6 12-7-12c0 0-12-3-13-3 3-4 5-7 8-11 0-4 0-8 0-12l11 5c4-1 8-3 12-5z m18-48l2 6 6 2-6 2-2 6-2-6-6-2 6-2z m363 72l12 11-15-10 9 11-12-11c0 0 0 0-1 0l3 6-4-5c-3 2-4 5-6 7 0 3 2 6 3 10 4 7 7 17 3 26-4 9-14 13-23 14-3 1-7 2-10 3 0 4-1 7-1 10-1 5-1 11-3 16l1 2 12 6-12 4-6 11-2-10c-4 2-8 3-12 3-5 0-8-1-13-2-3-1-6-1-9-1l-1 0c-2 2-4 5-6 8-4 8-9 18-19 20-1 0-2 0-4 0-4 0-8-2-12-3-1 0-1 0-3 0-3 0-7-4-9-8-2-2-5-4-7-4-3 2-6 4-9 6-6 6-14 9-21 10-1 0-3 0-4-1-10-2-15-11-19-19-2-3-4-6-6-9l-1 0c2 3 5 7 5 7l-11 4-7 9-7-10c0 0-11-3-12-3 1-2 2-4 3-5-2-1-5-2-7-4-6-5-8-13-8-20 0-2 0-4-1-5 0-4 0-7-1-10-1-2-6-3-10-4-9-2-19-6-23-15-1-2-2-4-2-5l-17 1 14-14 5-1c0-3 1-5 2-7 1-4 2-7 3-10-2-3-4-5-7-7-6-6-14-13-14-24 0-10 8-17 14-23 3-3 5-5 7-7-1-4-1-7-2-11-4-7-8-17-3-26 4-9 14-13 22-14 4-1 7-2 10-3 1-4 2-7 2-10 0-9 1-20 9-26 4-3 9-4 14-4 4 0 8 1 12 2 4 0 7 0 10 1l1 0c2-2 4-6 6-9 3-7 9-17 19-19 1 0 3 0 4 0 8 0 16 4 21 9 3 2 7 6 9 6 3-1 7-3 10-6 6-5 13-8 21-9 2 0 3 0 4 1 10 2 15 12 19 20 1 3 3 6 6 8l2 0c3 0 6 0 9-1 4-1 8-2 12-2 5 0 11 1 14 5 9 6 9 17 10 25 0 4 0 7 1 10 1 2 6 2 10 3 8 2 18 6 23 15 4 9 0 18-3 26-2 3-3 7-3 10 2 3 4 5 6 7 7 6 15 13 15 24 0 5-2 8-4 12l2 0-5 5 12 7z m-13-22c0-8-7-15-12-19-2-2-5-4-7-7 1-3 2-5 3-8 2-7 6-15 2-23-1-2-2-4-4-5-4-3-9-5-14-6 0 0 0 0-1-1-2-1-7-2-8-3 0-1 0-1 0-2 0-2 0-4 0-7-1-7-1-16-9-22-3-2-8-4-12-4-4 0-7 1-10 2-2 0-5 0-7 0 0 0 0 0-1 0 0 0 0 0 0 0l-2 0c-1 0-1-1-2-2-1-2-2-3-3-5-3-6-8-15-16-17-2-1-3-2-4-1-7 0-14 3-19 8-2 2-5 4-8 5-1 0-5-3-8-5-5-5-11-7-18-8-1 0-3 0-4 1-9 2-14 10-17 17-1 2-3 5-4 7l-1 0c-2 0-5 0-8 0-3-1-6-2-9-2-1 0-1 0-1 0-1 0-2 0-3 0-3 1-6 2-10 4-6 6-7 15-8 22 0 3 0 6 0 9-3 1-6 2-8 2-1 1-3 1-5 2-6 1-12 5-15 11-1 1-1 3-1 4-1 6 0 13 4 19 1 3 2 6 3 9-2 2-4 4-7 6-5 5-12 11-12 21 0 9 7 15 12 20 2 2 5 4 7 6-1 3-2 6-3 8-2 7-6 16-2 23 4 8 13 11 20 13 2 1 7 2 8 3-1 2-1 5-1 8 1 8 1 17 8 22 4 3 8 5 13 4 1 0 3 0 4 0 1 0 3 0 4 0 1 0 2 0 2-1 3-1 5-1 8-1l2 0c1 3 3 5 4 8 4 6 8 15 17 16 1 1 2 1 3 1 7-1 14-4 19-9 2-1 5-3 8-4 1 0 5 3 8 4 1 1 1 1 2 2 5 3 10 6 16 6 0 0 1 0 1 0 1 0 2 0 3 0 9-2 14-10 17-17 1-2 3-5 4-7l1 0c2 0 6 0 8 0 4 1 7 2 11 2 4 0 8-2 12-4 7-6 7-15 8-22 0-3 1-7 1-9 2-1 5-2 8-3 7-1 16-4 19-12 3-7 2-16-2-23-1-3-2-5-3-8 2-2 4-5 7-7 2-2 5-4 6-6 4-5 6-9 6-15z"/>
<glyph glyph-name="dyn-icon" unicode="&#102;" d="M507 361l-235 138c-3 2-6 2-9 1l-255-84c-5-2-8-6-8-11l0-74c0-4 2-8 5-9l224-150c2 0 4-1 6-1 1 0 3 0 4 1l266 96c4 1 7 5 7 10l0 75c0 3-2 6-5 8z m-242 117l220-130-250-90-209 140z m-29-284l-214 142 0 37 206-138c2-1 4-1 6-1 1 0 3 0 4 0l251 91 0-40z m271 8l-52 31c-6 3-13 1-16-4-3-5-2-13 4-15l43-25-250-90-210 139 43 14c6 1 9 8 7 14-1 6-8 9-14 7l-54-17c-4-2-8-6-8-11l0-74c0-4 2-8 5-9l224-149c2-1 4-2 6-2 1 0 3 0 4 1l266 96c4 2 7 5 7 11l0 74c0 3-2 6-5 9z m-271-168l-214 143 0 37 206-138c2-1 4-1 6-1 1 0 3 0 4 0l251 91 0-40z"/>
<glyph glyph-name="search-icon" unicode="&#103;" d="M463 79l-96 96c23 30 38 70 38 113 0 100-81 181-181 181-100 0-181-81-181-181 0-100 81-181 181-181 43 0 81 15 113 38l96-96c4-4 11-6 15-6 4 0 11 2 15 6 8 9 8 21 0 30z m-378 209c0 77 62 139 139 139 77 0 139-62 139-139 0-38-15-73-41-98-25-26-60-41-98-41-77 0-139 62-139 139z"/>
<glyph glyph-name="call-icon" unicode="&#104;" d="M427 23c-2 0-5 0-7 0-68 9-136 32-194 69-53 34-100 81-134 134-39 58-62 126-69 194 0 17 5 34 15 47 11 13 26 22 43 24 2 0 4 0 6 0l64 0c32 0 60-24 64-56 3-19 7-38 13-55 9-24 2-49-15-69l-15-14c26-39 58-73 99-99l14 15c18 17 45 24 69 15 17-6 36-10 55-13 32-4 56-32 56-64l0-64c0-17-7-34-20-44-12-11-27-20-44-20z m-276 425l-64 0c-6 0-12-4-17-9-2-4-4-8-4-14 7-62 28-122 62-175 32-49 73-92 122-122 53-34 113-55 175-62 8 0 12 2 17 7 4 4 6 8 6 14l0 64c0 11-9 20-19 22-22 2-43 8-64 17-9 2-17 2-24-4l-27-28c-7-7-17-9-26-4-58 32-105 79-137 136-2 9 0 19 7 26l28 27c4 5 6 15 4 22-9 21-13 42-17 64 0 10-11 19-22 19z m254-149c-10 0-19 6-21 17-6 34-34 59-68 68-11 2-19 13-17 26 2 10 12 19 25 17 51-11 92-49 101-101 2-10-5-23-18-25 0 0 0-2-2-2z m86 2c-11 0-20 8-22 19-8 79-70 141-151 151-11 3-19 13-19 24 2 11 12 19 23 19 100-11 177-87 188-188 2-10-7-21-19-23 2-2 0-2 0-2z"/>
<glyph glyph-name="message-icon" unicode="&#105;" d="M64 43c-2 0-6 0-9 2-8 2-12 10-12 19l0 341c0 37 27 64 64 64l298 0c37 0 64-27 64-64l0-213c0-36-27-64-64-64l-247 0-79-79c-4-4-9-6-15-6z m43 384c-13 0-22-9-22-22l0-290 49 49c5 5 9 7 15 7l256 0c13 0 22 8 22 21l0 213c0 13-9 22-22 22z"/>
<glyph glyph-name="check-icon" unicode="&#106;" d="M192 128c-6 0-11 2-15 6l-107 107c-8 9-8 21 0 30 9 8 22 8 30 0l92-92 220 220c8 8 21 8 30 0 8-9 8-21 0-30l-235-235c-4-4-9-6-15-6z"/>
<glyph glyph-name="heart-icon" unicode="&#107;" d="M256 38c-6 0-11 3-15 7l-188 188c-25 25-40 61-40 98 0 36 15 72 40 98 26 25 60 40 96 40 37 0 73-15 98-40l9-9 9 9c25 25 59 40 98 40 36 0 72-15 98-40 53-54 53-143 0-196l-188-188c-6-4-11-7-17-7z m-107 389c-23 0-49-9-66-28-38-38-38-98 0-137l173-172 173 172c19 20 28 43 28 69 0 25-11 49-28 68-17 17-41 28-66 28-26 0-49-11-69-28l-21-24c-8-8-21-8-30 0l-23 24c-19 19-45 28-71 28z"/>
<glyph glyph-name="cart-icon" unicode="&#108;" d="M171 0c-37 0-64 28-64 64 0 36 27 64 64 64 36 0 64-28 64-64 0-36-28-64-64-64z m0 85c-13 0-22-8-22-21 0-13 9-21 22-21 12 0 21 8 21 21 0 13-9 21-21 21z m256-85c-37 0-64 28-64 64 0 36 27 64 64 64 36 0 64-28 64-64 0-36-28-64-64-64z m0 85c-13 0-22-8-22-21 0-13 9-21 22-21 12 0 21 8 21 21 0 13-9 21-21 21z m-13 64c-2 0-2 0 0 0l-226 0c-32 0-60 24-64 56l-34 245c0 11-11 19-22 19l-47 0c-12 0-21 9-21 22 0 12 9 21 21 21l47 0c32 0 60-23 64-55l7-52 352 0c6 0 12-2 17-8 4-4 4-11 4-17l-36-179c-7-30-32-52-62-52z m-2 43c10 0 19 6 21 17l32 154-320 0 19-152c2-10 11-19 22-19z"/>
<glyph glyph-name="user-icon" unicode="&#109;" d="M427 43c-13 0-22 8-22 21l0 43c0 36-27 64-64 64l-170 0c-37 0-64-28-64-64l0-43c0-13-9-21-22-21-12 0-21 8-21 21l0 43c0 59 47 106 107 106l170 0c60 0 107-47 107-106l0-43c0-13-9-21-21-21z m-171 213c-60 0-107 47-107 107 0 59 47 106 107 106 60 0 107-47 107-106 0-60-47-107-107-107z m0 171c-36 0-64-28-64-64 0-37 28-64 64-64 36 0 64 27 64 64 0 36-28 64-64 64z"/>
<glyph glyph-name="down-icon" unicode="&#110;" d="M256 171c-6 0-11 2-15 6l-128 128c-8 9-8 21 0 30 9 8 21 8 30 0l113-113 113 113c9 8 21 8 30 0 8-9 8-21 0-30l-128-128c-4-4-9-6-15-6z"/>
<glyph glyph-name="left-icon" unicode="&#111;" d="M320 107c-6 0-11 2-15 6l-128 128c-8 9-8 21 0 30l128 128c9 8 21 8 30 0 8-9 8-21 0-30l-113-113 113-113c8-9 8-21 0-30-4-4-9-6-15-6z"/>
<glyph glyph-name="right-icon" unicode="&#112;" d="M192 107c-6 0-11 2-15 6-8 9-8 21 0 30l113 113-113 113c-8 9-8 21 0 30 9 8 21 8 30 0l128-128c8-9 8-21 0-30l-128-128c-4-4-9-6-15-6z"/>
<glyph glyph-name="up-icon" unicode="&#113;" d="M384 171c-6 0-11 2-15 6l-113 113-113-113c-9-8-21-8-30 0-8 9-8 21 0 30l128 128c9 8 21 8 30 0l128-128c8-9 8-21 0-30-4-4-9-6-15-6z"/>
<glyph glyph-name="facebook-icon" unicode="&#114;" d="M299 21l-86 0c-12 0-21 9-21 22l0 149-43 0c-12 0-21 9-21 21l0 86c0 12 9 21 21 21l43 0 0 43c0 70 58 128 128 128l64 0c13 0 21-9 21-22l0-85c0-13-8-21-21-21l-64 0 0-43 64 0c6 0 13-2 17-9 4-6 4-10 4-17l-21-85c-2-8-11-17-21-17l-43 0 0-149c0-13-9-22-21-22z m-64 43l42 0 0 149c0 13 9 22 22 22l47 0 10 42-57 0c-13 0-22 9-22 22l0 64c0 23 20 42 43 42l43 0 0 43-43 0c-47 0-85-38-85-85l0-64c0-13-9-22-22-22l-42 0 0-42 42 0c13 0 22-9 22-22z"/>
<glyph glyph-name="film-icon" unicode="&#115;" d="M422 491l-332 0c-39 0-69-30-69-69l0-332c0-39 30-69 69-69l332 0c39 0 69 30 69 69l0 332c0 39-30 69-69 69z m-38-150l64 0 0-64-64 0z m-43-64l-170 0 0 171 170 0z m-213 0l-64 0 0 64 64 0z m-64-42l64 0 0-64-64 0z m107 0l170 0 0-171-170 0z m213 0l64 0 0-64-64 0z m64 187l0-38-64 0 0 64 38 0c15 0 26-11 26-26z m-358 26l38 0 0-64-64 0 0 38c0 15 11 26 26 26z m-26-358l0 38 64 0 0-64-38 0c-15 0-26 11-26 26z m358-26l-38 0 0 64 64 0 0-38c0-15-11-26-26-26z"/>
<glyph glyph-name="instagram-icon" unicode="&#116;" d="M363 21l-214 0c-70 0-128 58-128 128l0 214c0 70 58 128 128 128l214 0c70 0 128-58 128-128l0-214c0-70-58-128-128-128z m-214 427c-47 0-85-38-85-85l0-214c0-47 38-85 85-85l214 0c47 0 85 38 85 85l0 214c0 47-38 85-85 85z m107-299c-23 0-45 7-64 22-23 17-38 42-43 70-6 58 34 113 92 122 11 2 21 2 32 0 47-7 83-43 90-90 4-28-2-55-20-79-17-23-42-38-70-43-6 0-11-2-17-2z m0 171c-2 0-6 0-9 0-34-4-59-38-53-73 4-34 39-59 73-53 17 2 32 11 42 26 11 15 15 30 13 47-4 27-25 49-53 53-7 0-9 0-13 0z m117 32c-6 0-10 2-15 6-2 3-4 5-4 7-2 2-2 4-2 8 0 7 2 11 6 15 9 9 22 9 30 0 5-4 7-8 7-15 0-2 0-6-2-8-3-2-3-4-5-7-4-4-8-6-15-6z"/>
<glyph glyph-name="twitter-icon" unicode="&#117;" d="M177 45c-55 0-113 15-164 45-9 4-13 15-11 23 2 9 11 15 19 15 37-2 73 6 105 21-79 49-100 118-103 171-2 62 20 113 22 115 2 7 8 13 17 13 8 0 15-2 19-9 36-51 92-83 154-87 0 34 15 66 40 90 45 38 111 38 154-3 17 7 34 15 49 26 6 4 17 4 23 0 7-4 11-15 9-23-7-30-21-58-43-81 0-5 0-7 0-11 0-117-51-216-143-267-42-25-94-38-147-38z m-70 51c68-17 140-9 200 26 77 44 122 130 122 230 0 4 0 9-2 13-2 6 0 15 6 19 4 4 9 11 13 15-4-2-11-4-15-4-9-2-17 0-21 6-28 30-75 34-105 6-19-12-28-34-28-55l0-21c0-11-8-22-21-22-70-2-137 26-183 75-13-55-18-160 106-213 7-5 13-11 13-20 0-8-2-14-9-19-25-17-51-30-76-36z"/>
<glyph glyph-name="eye-icon" unicode="&#118;" d="M256 64c-160 0-250 175-254 183-2 7-2 13 0 20 4 6 94 181 254 181 160 0 250-175 254-183 2-7 2-13 0-20-4-6-94-181-254-181z m-211 192c19-34 96-149 211-149 115 0 190 115 211 149-19 34-96 149-211 149-115 0-190-115-211-149z m211-85c-47 0-85 38-85 85 0 47 38 85 85 85 47 0 85-38 85-85 0-47-38-85-85-85z m0 128c-23 0-43-20-43-43 0-23 20-43 43-43 23 0 43 20 43 43 0 23-20 43-43 43z"/>
<glyph glyph-name="grid-icon" unicode="&#119;" d="M213 277l-149 0c-13 0-21 9-21 22l0 149c0 13 8 21 21 21l149 0c13 0 22-8 22-21l0-149c0-13-9-22-22-22z m-128 43l107 0 0 107-107 0z m363-43l-149 0c-13 0-22 9-22 22l0 149c0 13 9 21 22 21l149 0c13 0 21-8 21-21l0-149c0-13-8-22-21-22z m-128 43l107 0 0 107-107 0z m128-277l-149 0c-13 0-22 8-22 21l0 149c0 13 9 22 22 22l149 0c13 0 21-9 21-22l0-149c0-13-8-21-21-21z m-128 42l107 0 0 107-107 0z m-107-42l-149 0c-13 0-21 8-21 21l0 149c0 13 8 22 21 22l149 0c13 0 22-9 22-22l0-149c0-13-9-21-22-21z m-128 42l107 0 0 107-107 0z"/>
<glyph glyph-name="plus-icon" unicode="&#120;" d="M256 21c-130 0-235 105-235 235 0 130 105 235 235 235 130 0 235-105 235-235 0-130-105-235-235-235z m0 427c-107 0-192-85-192-192 0-107 85-192 192-192 107 0 192 85 192 192 0 107-85 192-192 192z m0-299c-13 0-21 9-21 22l0 170c0 13 8 22 21 22 13 0 21-9 21-22l0-170c0-13-8-22-21-22z m85 86l-170 0c-13 0-22 8-22 21 0 13 9 21 22 21l170 0c13 0 22-8 22-21 0-13-9-21-22-21z"/>
<glyph glyph-name="minus-icon" unicode="&#121;" d="M256 21c-130 0-235 105-235 235 0 130 105 235 235 235 130 0 235-105 235-235 0-130-105-235-235-235z m0 427c-107 0-192-85-192-192 0-107 85-192 192-192 107 0 192 85 192 192 0 107-85 192-192 192z m85-213l-170 0c-13 0-22 8-22 21 0 13 9 21 22 21l170 0c13 0 22-8 22-21 0-13-9-21-22-21z"/>
<glyph glyph-name="list-icon" unicode="&#122;" d="M448 363l-388 0c-13 0-22 8-22 21 0 13 9 21 22 21l388 0c13 0 21-8 21-21 0-13-8-21-21-21z m0-128l-388 0c-13 0-22 8-22 21 0 13 9 21 22 21l388 0c13 0 21-8 21-21 0-13-8-21-21-21z m0-128l-388 0c-13 0-22 8-22 21 0 13 9 21 22 21l388 0c13 0 21-8 21-21 0-13-8-21-21-21z"/>
<glyph glyph-name="delete-icon" unicode="&#65;" d="M256 21c-130 0-235 105-235 235 0 130 105 235 235 235 130 0 235-105 235-235 0-130-105-235-235-235z m0 427c-107 0-192-85-192-192 0-107 85-192 192-192 107 0 192 85 192 192 0 107-85 192-192 192z m-64-277c-6 0-11 2-15 6-8 9-8 21 0 30l128 128c9 8 21 8 30 0 8-9 8-21 0-30l-128-128c-4-4-9-6-15-6z m128 0c-6 0-11 2-15 6l-128 128c-8 9-8 21 0 30 9 8 21 8 30 0l128-128c8-9 8-21 0-30-4-4-9-6-15-6z"/>
<glyph glyph-name="menu-icon" unicode="&#66;" d="M448 235l-384 0c-13 0-21 8-21 21 0 13 8 21 21 21l384 0c13 0 21-8 21-21 0-13-8-21-21-21z m0 128l-384 0c-13 0-21 8-21 21 0 13 8 21 21 21l384 0c13 0 21-8 21-21 0-13-8-21-21-21z m0-256l-384 0c-13 0-21 8-21 21 0 13 8 21 21 21l384 0c13 0 21-8 21-21 0-13-8-21-21-21z"/>
<glyph glyph-name="arrowdown-icon" unicode="&#67;" d="M399 228c-9 9-21 9-30 0l-92-91 0 290c0 12-8 21-21 21-13 0-21-9-21-21l0-290-92 91c-9 9-21 9-30 0-8-8-8-21 0-30l128-128c2-2 4-4 6-4 3-2 7-2 9-2 2 0 6 0 9 2 2 2 4 2 6 4l128 128c8 9 8 22 0 30z"/>
<glyph glyph-name="arrowup-icon" unicode="&#68;" d="M399 314l-128 128c-2 2-4 4-6 4-5 2-11 2-18 0-2-2-4-2-6-4l-128-128c-8-9-8-22 0-30 9-9 21-9 30 0l92 91 0-290c0-12 8-21 21-21 13 0 21 9 21 21l0 290 92-91c4-5 11-7 15-7 4 0 11 2 15 7 8 8 8 21 0 30z"/>
<glyph glyph-name="check-circle" unicode="&#69;" d="M256 21c-130 0-235 105-235 235 0 130 105 235 235 235 34 0 66-7 96-22 11-4 15-17 11-27-5-11-17-15-28-11-26 11-51 17-79 17-107 0-192-85-192-192 0-107 85-192 192-192 107 0 192 85 192 192l0 19c0 13 9 22 21 22 13 0 22-9 22-22l0-19c0-130-105-235-235-235z m0 171c-6 0-11 2-15 6l-64 64c-8 9-8 22 0 30 9 9 21 9 30 0l49-49 220 220c8 8 21 8 30 0 8-9 8-21 0-30l-235-235c-4-4-9-6-15-6z"/>
<glyph glyph-name="payment-icon" unicode="&#70;" d="M448 448l-384 0c-36 0-64-28-64-64l0-256c0-36 28-64 64-64l384 0c36 0 64 28 64 64l0 256c0 36-28 64-64 64z m-384-43l384 0c13 0 21-8 21-21l0-64-426 0 0 64c0 13 8 21 21 21z m384-298l-384 0c-13 0-21 8-21 21l0 149 426 0 0-149c0-13-8-21-21-21z"/>
<glyph glyph-name="phone-icon" unicode="&#72;" d="M427 23c-2 0-5 0-7 0-68 9-136 32-194 69-53 34-100 81-134 134-39 58-62 126-69 194 0 17 5 34 15 47 11 13 26 22 43 24 2 0 4 0 6 0l64 0c32 0 60-24 64-56 3-19 7-38 13-55 9-24 2-49-15-69l-15-14c26-39 58-73 99-99l14 15c18 17 45 24 69 15 17-6 36-10 55-13 32-4 56-32 56-64l0-64c0-17-7-34-20-44-12-11-27-20-44-20z m-276 425l-64 0c-6 0-12-4-17-9-2-4-4-8-4-14 7-62 28-122 62-175 32-49 73-92 122-122 53-34 113-55 175-62 8 0 12 2 17 7 4 4 6 8 6 14l0 64c0 11-9 20-19 22-22 2-43 8-64 17-9 2-17 2-24-4l-27-28c-7-7-17-9-26-4-58 32-105 79-137 136-2 9 0 19 7 26l28 27c4 5 6 15 4 22-9 21-13 42-17 64 0 10-11 19-22 19z"/>
<glyph glyph-name="zoom-in" unicode="&#71;" d="M463 79l-79 79c26 32 43 75 43 119 0 107-86 192-192 192-107 0-192-85-192-192 0-106 85-192 192-192 44 0 87 15 119 43l79-79c4-4 11-6 15-6 4 0 11 2 15 6 8 9 8 21 0 30z m-378 198c0 84 66 150 150 150 83 0 149-66 149-150 0-40-17-79-43-104-27-28-64-43-104-43-86-2-152 64-152 147z m214 22l-43 0 0 42c0 13-9 22-21 22-13 0-22-9-22-22l0-42-42 0c-13 0-22-9-22-22 0-12 9-21 22-21l42 0 0-43c0-12 9-21 22-21 12 0 21 9 21 21l0 43 43 0c12 0 21 9 21 21 0 13-9 22-21 22z"/>
<glyph glyph-name="brush-icon" unicode="&#73;" d="M109 38c-32 0-56 5-62 5-9 2-15 6-17 15-2 8 0 17 6 21 30 26 43 51 54 72 6 13 12 26 23 37 17 19 41 30 64 32 24 2 45-7 60-22 17-15 25-36 23-59-2-28-19-56-47-75-27-21-68-26-104-26z m-11 43c32-2 71 2 92 17 17 13 28 28 30 43 0 10-2 19-11 25-8 7-19 11-30 11-13 0-23-6-34-17-6-6-11-17-17-28-6-13-15-32-30-51z m192 96c-2 0-2 0-4 0-9 2-15 6-17 15-2 9-11 23-17 28-15 10-34 10-34 10-9 0-15 7-20 13-2 9-2 17 5 24 6 6 145 151 185 187 28 26 60 22 77 7 19-17 21-47 4-68-21-30-155-201-162-207-4-7-10-9-17-9z m-30 88c7-3 11-7 17-11 7-4 13-11 17-17 41 51 124 158 143 181 5 7 5 11 0 13-4 4-10 2-19-6-28-28-115-116-158-160z"/>
<glyph glyph-name="folder-icon" unicode="&#74;" d="M427 43l-342 0c-36 0-64 27-64 64l0 298c0 37 28 64 64 64l107 0c6 0 13-4 17-8l36-56 182 0c36 0 64-27 64-64l0-234c0-37-28-64-64-64z m-342 384c-12 0-21-9-21-22l0-298c0-13 9-22 21-22l342 0c12 0 21 9 21 22l0 234c0 13-9 22-21 22l-192 0c-7 0-13 4-17 8l-37 56z"/>
<glyph glyph-name="sliders-icon" unicode="&#75;" d="M435 117l-119 0 0 41c0 11-9 19-19 19-11 0-20-8-20-19l0-120c0-10 9-19 20-19 10 0 19 9 19 19l0 41 119 0c11 0 19 8 19 19 0 11-8 19-19 19z m-220 0l-138 0c-11 0-19-8-19-19 0-11 8-19 19-19l138 0c11 0 20 8 20 19 2 11-7 19-20 19z m220 158l-179 0c-11 0-19-8-19-19 0-11 8-19 19-19l179 0c11 0 19 8 19 19 0 11-8 19-19 19z m-358-38l79 0 0-41c0-10 8-19 19-19 11 0 19 9 19 19l0 120c0 10-8 19-19 19-11 0-17-9-17-19l0-41-81 0c-11 0-19-8-19-19 0-11 8-19 19-19z m0 158l179 0c11 0 19 8 19 19 0 11-8 21-19 21l-179 0c-11 0-19-8-19-19 0-11 8-21 19-21z m258-60c11 0 19 8 19 19l0 41 79 0c11 0 19 8 19 19 0 11-8 19-19 19l-79 0 0 41c0 10-8 19-19 19-11 0-19-9-19-19l0-120c0-11 8-19 19-19z"/>
<glyph glyph-name="star-icon" unicode="&#76;" d="M388 43c-4 0-6 0-10 2l-122 64-122-64c-6-4-15-2-23 2-6 4-11 13-9 21l24 137-98 94c-7 6-9 15-7 21 2 9 9 13 17 15l137 19 62 124c6 15 32 15 38 0l62-124 137-19c6 0 12-6 17-15 2-9 0-17-7-21l-98-96 24-137c2-8-3-17-9-21-4-2-8-2-13-2z m-301 256l75-75c7-4 9-11 9-17l-17-105 93 49c7 5 13 5 20 0l94-49-20 105c-2 6 2 15 7 19l74 75-104 15c-7 0-13 6-17 10l-45 94-47-94c-2-6-8-10-15-10z"/>
<glyph glyph-name="maximize-2" unicode="&#77;" d="M467 457c-2 4-6 8-10 10-3 2-7 2-9 2l-128 0c-13 0-21-8-21-21 0-13 8-21 21-21l77 0-113-113c-9-9-9-22 0-30 4-5 10-7 15-7 4 0 10 2 15 7l113 113 0-77c0-13 8-21 21-21 13 0 21 8 21 21l0 128c0 2 0 6-2 9z m-269-229l-113-113 0 77c0 13-8 21-21 21-13 0-21-8-21-21l0-128c0-2 0-6 2-9 2-4 6-8 10-10 3-2 7-2 9-2l128 0c13 0 21 8 21 21 0 13-8 21-21 21l-77 0 113 113c9 9 9 22 0 30-8 9-21 9-30 0z"/>
</font>
</defs>
</svg>
